<svg xmlns="http://www.w3.org/2000/svg" xmlns:xlink="http://www.w3.org/1999/xlink" version="1.1" width="256" height="256" viewBox="0 0 256 256" xml:space="preserve">

<defs>
</defs>
<g style="stroke: none; stroke-width: 0; stroke-dasharray: none; stroke-linecap: butt; stroke-linejoin: miter; stroke-miterlimit: 10; fill: none; fill-rule: nonzero; opacity: 1;" transform="translate(1.4065934065934016 1.4065934065934016) scale(2.81 2.81)" >
	<path d="M 40.859 53.69 c 0.05 0.007 0.061 0.009 0.109 0.015 c 0.811 0.11 1.607 0.256 2.217 0.529 c 0.565 0.249 0.896 0.565 1.199 1.128 c 0.46 0.853 0.49 2.049 0.074 2.954 c -0.31 0.673 -0.992 1.238 -1.614 1.537 c -0.646 0.313 -1.282 0.462 -2.012 0.546 c -1.277 0.141 -2.656 -0.124 -3.804 -0.68 c -0.68 -0.332 -1.51 -0.904 -1.928 -1.64 c -0.308 -0.539 -0.298 -1.241 0.076 -1.754 c 0.597 -0.817 1.876 -0.997 2.839 -0.963 c 0.734 0.028 2.056 0.255 2.754 0.503 c 0.193 0.07 0.906 0.347 1.03 0.475 c 0.088 0.089 0.144 0.217 0.105 0.336 c -0.159 0.487 -1.343 0.744 -1.685 0.796 c -0.915 0.14 -1.39 -0.206 -2.431 -0.617 c -0.258 -0.101 -0.603 -0.213 -0.866 -0.238 c -0.472 -0.045 -1.043 0.087 -1.133 0.603 c -0.045 0.266 0.267 0.514 0.505 0.619 c 0.558 0.24 1.012 0.326 1.561 0.333 c 1.623 0.027 3.447 -0.24 4.774 -1.181 c 0.182 -0.13 0.36 -0.319 0.362 -0.559 c 0.006 -0.483 -0.841 -0.779 -0.841 -0.779 c -0.894 -0.373 -2.546 -0.554 -3.397 -0.624 c -0.893 -0.077 -2.299 -0.193 -2.636 -0.243 c -0.347 -0.05 -0.725 -0.12 -1.026 -0.255 c -0.302 -0.137 -0.598 -0.442 -0.686 -0.78 c -0.156 -0.609 0.043 -1.357 0.381 -1.844 c 0.887 -1.275 2.965 -1.759 4.517 -1.952 c 1.502 -0.187 3.931 -0.185 5.406 0.599 c 0.228 0.122 0.344 0.236 0.297 0.479 c -0.096 0.457 -0.44 0.752 -0.856 0.881 c -0.437 0.139 -1.341 0.193 -1.738 0.218 c -1.779 0.1 -3.929 0.047 -5.623 0.509 c -0.133 0.038 -0.362 0.1 -0.437 0.183 c -0.265 0.288 0.492 0.37 0.655 0.403 c 0.048 0.012 0.058 0.013 0.108 0.019 L 40.859 53.69 M 30.276 45.758 c 0 0 0.289 -0.434 0.532 -0.763 c 0.441 -0.6 1.24 -1.431 1.842 -1.946 c 0.184 -0.157 0.401 -0.335 0.401 -0.335 s -0.339 0.035 -0.532 0.074 c -0.456 0.089 -1.126 0.534 -1.46 0.821 c -0.552 0.472 -1.159 1.24 -0.884 1.923 C 30.215 45.628 30.276 45.758 30.276 45.758 M 33.344 46.579 c 0.872 -0.06 1.688 -0.311 2.449 -0.733 c 0.746 -0.417 1.842 -1.231 1.729 -2.187 c -0.035 -0.31 -0.237 -0.543 -0.493 -0.652 c -0.333 -0.144 -0.506 -0.121 -0.931 0.005 c -0.309 0.09 -0.448 0.145 -0.739 0.312 c -0.855 0.497 -2.068 1.56 -2.726 2.409 c -0.152 0.2 -0.306 0.424 -0.426 0.577 c -0.076 0.095 -0.135 0.181 -0.128 0.205 C 32.104 46.611 33.003 46.602 33.344 46.579 M 31.124 48.209 c -0.09 0.095 -0.185 0.324 -0.284 0.491 c -0.053 0.089 -0.15 0.203 -0.215 0.249 c -0.227 0.167 -0.419 0.175 -0.638 -0.018 c -0.307 -0.272 -0.485 -0.692 -0.497 -1.101 c -0.007 -0.178 0.024 -0.376 -0.01 -0.526 c -0.056 -0.254 -0.31 -0.515 -0.447 -0.758 c -0.161 -0.286 -0.291 -0.785 -0.307 -1.106 c -0.055 -1.004 0.474 -1.928 1.161 -2.658 c 0.692 -0.737 1.598 -1.35 2.583 -1.768 c 0.931 -0.392 2.295 -0.659 3.317 -0.305 c 0.333 0.114 0.796 0.397 1.03 0.694 c 0.049 0.062 0.09 0.128 0.141 0.161 c 0.045 0.029 0.164 0.04 0.259 0.058 c 0.326 0.057 0.796 0.303 0.987 0.468 c 0.385 0.332 0.596 0.65 0.694 1.111 c 0.196 0.928 -0.338 1.946 -0.947 2.565 c -1.042 1.066 -2.071 1.816 -3.404 2.338 c -0.585 0.229 -1.497 0.442 -2.161 0.383 c -0.206 -0.017 -0.418 -0.071 -0.619 -0.085 c -0.103 -0.009 -0.477 -0.105 -0.517 -0.133 C 31.2 48.229 31.135 48.196 31.124 48.209 M 32.315 50.266 c 0.041 0.007 0.103 0.025 0.157 0.046 c 0.467 0.178 0.66 0.61 0.775 1.085 c 0.267 1.103 0.381 3.543 0.425 4.498 c 0.033 0.717 0.05 1.422 0.081 2.131 c 0.025 0.6 0.073 1.398 -0.052 1.96 c -0.045 0.202 -0.181 0.437 -0.374 0.558 c -0.222 0.142 -0.727 0.153 -1.004 0.096 c -0.684 -0.141 -0.906 -0.581 -1.004 -1.258 c -0.232 -1.615 -0.12 -4.783 0.017 -6.12 c 0.046 -0.442 0.212 -1.857 0.442 -2.45 C 31.855 50.612 32.022 50.209 32.315 50.266 M 11.501 52.952 c 0 0 -1.018 0.072 -1.719 0.15 c -0.892 0.096 -2.567 0.385 -3.534 0.731 c -0.29 0.104 -0.879 0.35 -0.931 0.649 c -0.054 0.309 0.138 0.551 0.351 0.801 c 0.123 0.145 0.822 0.817 1.018 0.98 c 0.821 0.685 2.485 1.742 3.711 2.256 c 0.421 0.174 1.118 0.424 1.118 0.424 s -0.052 -1.984 -0.042 -3.938 C 11.479 53.973 11.501 52.952 11.501 52.952 M 30.172 53.742 c 0.058 0.533 -0.079 1.541 -0.102 1.674 c -0.043 0.306 -0.274 1.013 -0.313 1.099 c -0.186 0.429 -0.37 0.781 -0.565 1.132 c -0.334 0.601 -1.128 1.554 -1.599 1.961 c -1.753 1.515 -4.466 2.378 -6.794 2.662 c -1.579 0.191 -3.394 0.163 -5.068 -0.147 c -0.576 -0.105 -1.433 -0.302 -1.433 -0.302 s 0.003 0.343 -0.025 0.584 c -0.013 0.11 -0.096 0.399 -0.143 0.493 c -0.122 0.251 -0.321 0.381 -0.612 0.437 c -0.351 0.065 -0.723 0.087 -1.047 -0.052 c -0.532 -0.224 -0.723 -0.722 -0.816 -1.296 c -0.075 -0.459 -0.153 -1.257 -0.153 -1.257 s -0.398 -0.188 -0.73 -0.354 c -1.019 -0.502 -1.987 -1.111 -2.834 -1.736 c -0.235 -0.175 -1.243 -1.019 -1.465 -1.229 c -0.624 -0.592 -1.185 -1.182 -1.612 -1.938 c -0.332 -0.591 -0.427 -1.115 -0.175 -1.741 c 0.348 -0.872 1.599 -1.529 2.455 -1.903 c 0.628 -0.277 2.582 -0.915 3.393 -1.034 c 0.383 -0.055 0.978 -0.161 1.014 -0.185 c 0.015 -0.011 0.025 -0.021 0.036 -0.033 c 0.019 -0.026 0.05 -0.89 0.044 -1.206 c -0.008 -0.311 0.23 -2.351 0.306 -2.782 c 0.04 -0.233 0.217 -1.131 0.397 -1.367 c 0.118 -0.159 0.327 -0.146 0.497 -0.042 c 0.931 0.579 1.214 2.586 1.283 3.607 c 0.041 0.622 0.062 1.558 0.062 1.558 s 1.068 -0.032 1.725 -0.013 c 0.638 0.015 1.342 0.116 2.004 0.221 c 0.848 0.136 2.501 0.497 3.45 0.977 c 0.781 0.396 1.512 1.063 1.748 1.768 c 0.22 0.647 0.187 1.095 -0.148 1.679 c -0.377 0.659 -1.089 1.149 -1.812 1.19 c -0.215 0.012 -1.024 -0.095 -1.273 -0.288 c -0.098 -0.077 -0.093 -0.216 -0.022 -0.31 c 0.027 -0.033 0.405 -0.234 0.628 -0.352 c 0.112 -0.061 0.205 -0.126 0.292 -0.206 c 0.185 -0.163 0.352 -0.343 0.334 -0.554 c -0.026 -0.274 -0.315 -0.442 -0.591 -0.551 c -1.295 -0.514 -3.88 -0.941 -5.129 -1.015 c -0.489 -0.029 -1.184 -0.053 -1.184 -0.053 l 0.147 6.898 c 0 0 0.575 0.11 1.028 0.183 c 0.26 0.039 1.362 0.139 1.654 0.146 c 2.229 0.059 4.717 -0.141 6.763 -1.106 c 0.898 -0.423 1.722 -0.949 2.346 -1.661 c 0.822 -0.943 1.253 -2.233 1.139 -3.58 c -0.125 -1.472 -1.161 -3.218 -1.988 -4.282 c -2.185 -2.81 -5.931 -5.122 -9.226 -6.477 c -3.364 -1.383 -6.689 -2.178 -10.26 -2.311 c -0.92 -0.034 -2.927 0.012 -3.942 0.293 c -0.145 0.041 -0.291 0.09 -0.426 0.12 c -0.106 0.026 -0.274 0.096 -0.32 0.134 c -0.025 0.021 -0.051 0.049 -0.051 0.049 s 0.063 0.035 0.122 0.06 c 0.107 0.047 0.56 0.075 0.794 0.118 c 0.209 0.039 0.427 0.149 0.514 0.303 c 0.082 0.146 0.092 0.261 -0.006 0.383 c -0.23 0.28 -1.095 0.232 -1.476 0.172 c -0.396 -0.063 -0.889 -0.184 -0.979 -0.529 c -0.105 -0.406 0.088 -0.804 0.296 -1.172 c 0.419 -0.736 1.018 -1.119 1.896 -1.359 c 1.247 -0.343 2.822 -0.583 4 -0.628 c 2.665 -0.101 5.188 0.365 7.771 1.149 c 1.478 0.447 3.413 1.197 4.83 1.879 c 1.017 0.49 2.618 1.391 3.518 1.981 c 0.284 0.187 1.944 1.407 2.202 1.622 c 0.538 0.44 1.242 1.072 1.752 1.578 c 0.986 0.977 2.212 2.475 2.808 3.664 c 0.143 0.285 0.254 0.565 0.439 0.895 c 0.064 0.113 0.336 0.789 0.381 0.984 c 0.045 0.193 0.111 0.477 0.12 0.489 C 30.055 52.937 30.182 53.518 30.172 53.742 M 63.681 52.217 c -1.248 0.288 -4.531 0.448 -4.531 0.448 l -0.414 1.297 c 0 0 1.64 -0.14 2.834 -0.015 c 0 0 0.387 -0.045 0.432 0.439 c 0.015 0.451 -0.038 0.935 -0.038 0.935 s -0.025 0.293 -0.44 0.367 c -0.45 0.075 -3.536 0.194 -3.536 0.194 l -0.5 1.69 c 0 0 -0.186 0.391 0.23 0.279 c 0.387 -0.104 3.62 -0.71 4.041 -0.623 c 0.451 0.112 0.951 0.714 0.806 1.262 c -0.172 0.68 -3.399 2.738 -5.364 2.594 c 0 0 -1.033 0.067 -1.905 -1.327 c -0.813 -1.328 0.308 -3.843 0.308 -3.843 s -0.514 -1.174 -0.141 -1.572 c 0 0 0.222 -0.201 0.868 -0.247 l 0.791 -1.636 c 0 0 -0.901 0.062 -1.437 -0.601 c -0.499 -0.629 -0.541 -0.918 -0.158 -1.091 c 0.409 -0.202 4.161 -0.887 6.743 -0.8 c 0 0 0.897 -0.088 1.675 1.468 C 63.945 51.436 64.321 52.065 63.681 52.217 M 53.97 58.508 c -0.331 0.778 -1.205 1.609 -2.291 1.093 c -1.072 -0.517 -2.779 -4.011 -2.779 -4.011 s -0.648 -1.303 -0.773 -1.269 c 0 0 -0.14 -0.254 -0.226 1.169 c -0.089 1.418 0.017 4.182 -0.548 4.617 c -0.536 0.436 -1.184 0.263 -1.521 -0.247 c -0.306 -0.502 -0.433 -1.696 -0.266 -3.791 c 0.196 -2.1 0.684 -4.334 1.307 -5.03 c 0.622 -0.691 1.122 -0.189 1.317 -0.007 c 0 0 0.832 0.755 2.205 2.97 l 0.242 0.41 c 0 0 1.248 2.093 1.378 2.088 c 0 0 0.102 0.096 0.193 0.027 c 0.131 -0.037 0.078 -0.709 0.078 -0.709 s -0.259 -2.281 -1.397 -6.143 c 0 0 -0.172 -0.481 -0.056 -0.933 c 0.116 -0.456 0.573 -0.242 0.573 -0.242 s 1.764 0.887 2.62 3.759 C 54.878 55.133 54.306 57.724 53.97 58.508 M 72.955 56.788 c -0.803 1.401 -3.07 4.335 -6.083 3.642 c -0.995 2.413 -1.831 4.853 -2.308 8.505 c 0 0 -0.105 0.71 -0.695 0.463 c -0.584 -0.205 -1.547 -1.176 -1.742 -2.521 c -0.21 -1.766 0.577 -4.751 2.183 -8.174 c -0.469 -0.762 -0.788 -1.85 -0.515 -3.4 c 0 0 0.404 -2.878 3.294 -5.472 c 0 0 0.346 -0.299 0.547 -0.207 c 0.221 0.093 0.119 1.029 -0.057 1.485 c -0.182 0.453 -1.469 2.681 -1.469 2.681 s -0.803 1.505 -0.577 2.692 c 1.516 -2.331 4.962 -7.031 7.098 -5.549 c 0.717 0.513 1.048 1.63 1.048 2.833 C 73.682 54.823 73.427 55.946 72.955 56.788 M 72.332 53.097 c 0 0 -0.119 -0.927 -1.025 0.094 c -0.779 0.861 -2.185 2.476 -3.316 4.668 c 1.187 -0.133 2.332 -0.777 2.678 -1.105 C 71.232 56.254 72.544 54.899 72.332 53.097 M 89.552 52.886 H 84.03 c -0.11 -1.877 -0.337 -3.705 -0.693 -5.587 c -0.037 -0.195 -0.206 -0.336 -0.403 -0.336 h -1.273 c -0.111 0 -0.216 0.05 -0.287 0.137 c -0.072 0.088 -0.1 0.201 -0.079 0.311 c 0.362 1.822 0.591 3.615 0.704 5.478 h -5.312 c -0.247 0 -0.449 0.2 -0.449 0.447 v 1.148 c 0 0.247 0.201 0.449 0.449 0.449 h 5.388 c 0.003 0.283 0.006 0.537 0.006 0.775 c 0 1.655 -0.071 3.018 -0.238 4.556 c -0.013 0.119 0.026 0.237 0.106 0.324 c 0.078 0.088 0.191 0.138 0.308 0.138 h 1.181 c 0.23 0 0.421 -0.173 0.444 -0.403 c 0.161 -1.549 0.23 -2.928 0.23 -4.615 c 0 -0.237 -0.003 -0.492 -0.006 -0.775 h 5.446 c 0.247 0 0.448 -0.202 0.448 -0.449 v -1.148 C 90 53.087 89.798 52.886 89.552 52.886" style="stroke: none; stroke-width: 1; stroke-dasharray: none; stroke-linecap: butt; stroke-linejoin: miter; stroke-miterlimit: 10; fill: rgb(7,3,255); fill-rule: nonzero; opacity: 1;" transform=" matrix(1 0 0 1 0 0) " stroke-linecap="round" />
	<path d="M 15.724 37.502 c -0.078 0.116 -0.097 0.259 -0.052 0.393 c 0.047 0.134 0.149 0.235 0.281 0.282 l 0.99 0.333 c 0.06 0.019 0.119 0.029 0.178 0.029 c 0.183 0 0.356 -0.091 0.458 -0.243 c 3.242 -4.763 7.63 -8.728 12.689 -11.468 c 5.224 -2.829 11.142 -4.325 17.117 -4.325 c 7.217 0 14.18 2.129 20.138 6.156 c 5.813 3.928 10.327 9.409 13.055 15.849 c 0.081 0.193 0.27 0.317 0.478 0.317 h 1.182 c 0.136 0 0.264 -0.069 0.341 -0.182 c 0.077 -0.114 0.092 -0.258 0.04 -0.386 c -2.813 -6.925 -7.57 -12.828 -13.758 -17.069 c -6.335 -4.342 -13.762 -6.637 -21.477 -6.637 C 34.629 20.55 22.793 26.887 15.724 37.502" style="stroke: none; stroke-width: 1; stroke-dasharray: none; stroke-linecap: butt; stroke-linejoin: miter; stroke-miterlimit: 10; fill: rgb(7,3,255); fill-rule: nonzero; opacity: 1;" transform=" matrix(1 0 0 1 0 0) " stroke-linecap="round" />
</g>
</svg>